PathFileType	4	(X/Y/Z)	C:\Users\Basilio\Documents\Thesis Gigler\squatting_fais\c3dfiles\038\SLS_back_pre2\markers_experimental.trc
DataRate	CameraRate	NumFrames	NumMarkers	Units	OrigDataRate	OrigDataStartFrame	OrigNumFrames
200.000000	200.000000	4	63	mm	200.000000	447	1791
Frame#	Time	FHD			LBHD			RBHD			C7			T10			CLAV			LSHO			LUUPA			LMUPA			LDUPA			LLEP			LMEP			LRAD			LUL			LRFIN			RSHO			RUPA1			RMUPA			RDUPA			RLEP			RMEP			RRAD			RUL			RUFIN			LASI			RASI			USACR			LSACR			RSACR			LTHI1			LTHI2			LTHI3			LTHI4			LLFC			LMFC			LTIB1			LTIB2			LTIB3			LTIB4			LLMAL			LMMAL			LHEE			LMT1			LMT2			LMT5			RTHI			RTHI2			RTHI3			RTHI4			RLFC			RMFC			RTIB1			RTIB2			RTIB3			RTIB4			RLMAL			RMMAL			RHEE			RMT1			RMT2			RMT5			*61			*62			
		X1	Y1	Z1	X2	Y2	Z2	X3	Y3	Z3	X4	Y4	Z4	X5	Y5	Z5	X6	Y6	Z6	X7	Y7	Z7	X8	Y8	Z8	X9	Y9	Z9	X10	Y10	Z10	X11	Y11	Z11	X12	Y12	Z12	X13	Y13	Z13	X14	Y14	Z14	X15	Y15	Z15	X16	Y16	Z16	X17	Y17	Z17	X18	Y18	Z18	X19	Y19	Z19	X20	Y20	Z20	X21	Y21	Z21	X22	Y22	Z22	X23	Y23	Z23	X24	Y24	Z24	X25	Y25	Z25	X26	Y26	Z26	X27	Y27	Z27	X28	Y28	Z28	X29	Y29	Z29	X30	Y30	Z30	X31	Y31	Z31	X32	Y32	Z32	X33	Y33	Z33	X34	Y34	Z34	X35	Y35	Z35	X36	Y36	Z36	X37	Y37	Z37	X38	Y38	Z38	X39	Y39	Z39	X40	Y40	Z40	X41	Y41	Z41	X42	Y42	Z42	X43	Y43	Z43	X44	Y44	Z44	X45	Y45	Z45	X46	Y46	Z46	X47	Y47	Z47	X48	Y48	Z48	X49	Y49	Z49	X50	Y50	Z50	X51	Y51	Z51	X52	Y52	Z52	X53	Y53	Z53	X54	Y54	Z54	X55	Y55	Z55	X56	Y56	Z56	X57	Y57	Z57	X58	Y58	Z58	X59	Y59	Z59	X60	Y60	Z60	X61	Y61	Z61	X62	Y62	Z62	X63	Y63	Z63	

448	2.235	-166.8306732177735	1754.412719726563	-1073.574340820313	-324.3856506347657	1717.561279296875	-1136.47021484375	-320.4330139160157	1705.695922851563	-991.829284667969	-389.5528259277345	1540.562133789063	-1060.654174804688	-392.1902160644532	1256.351318359375	-1035.309326171875	-248.3017883300782	1513.034912109375	-1075.570678710938	-322.7557678222657	1554.965209960938	-1219.784545898438	-209.8467102050782	1414.8994140625	-1365.4736328125	-170.8521423339844	1445.336059570313	-1358.554809570313	-146.2991485595703	1401.56640625	-1391.182983398438	-87.13381195068361	1386.700561523438	-1406.731567382813	-86.2106170654297	1319.727905273438	-1366.230590820313	199.5922088623047	1364.278076171875	-1311.98291015625	203.8289337158204	1347.262451171875	-1381.696044921875	276.8041992187501	1392.72314453125	-1313.659790039063	-294.4903259277344	1553.646850585938	-925.450378417969	-153.9114227294922	1482.507080078125	-791.4029541015627	-113.1365356445313	1488.689453125	-818.1413574218752	-91.00564575195314	1463.606201171875	-767.9923706054689	-19.14190292358399	1445.6494140625	-751.9827880859376	-26.1286849975586	1367.58447265625	-773.3183593750002	247.4885559082032	1406.890014648438	-852.078796386719	262.5063171386719	1406.203369140625	-781.0482177734377	329.5081481933594	1429.666015625	-853.8015136718752	-218.2988586425782	1058.883666992188	-1136.016967773438	-230.0593566894532	1087.538940429688	-886.658874511719	-393.8695373535157	1121.307006835938	-1021.362854003906	-406.042449951172	1089.610961914063	-1046.786254882813	-406.4167785644532	1093.828247070313	-990.1289062500002	-258.2674560546876	737.1526489257814	-1165.94384765625	-229.0604400634766	658.0560302734376	-1152.688842773438	-183.0237274169922	664.2285156250001	-1130.794921875	-257.9992675781251	610.8634033203126	-1131.050048828125	-255.6358032226563	549.2683105468751	-1118.521240234375	-246.6667022705079	549.6109619140626	-999.1983642578127	-243.9221496582032	362.9150390625001	-1032.296630859375	-292.7838745117188	321.8728027343751	-1093.286987304688	-255.8989715576172	314.5367736816407	-1063.914672851563	-280.9246826171876	241.0095977783204	-1029.208618164063	-381.9870605468751	119.6755676269532	-1038.902221679688	-339.9966735839844	136.1623992919922	-968.7835693359377	-432.5076293945314	101.6968383789063	-981.932067871094	-234.4023590087891	46.55868148803712	-976.7600097656252	-226.0696563720704	44.50724411010743	-1026.850341796875	-271.6652832031251	33.6617774963379	-1073.283447265625	-256.1133422851563	817.8891601562502	-808.419372558594	-216.5111846923829	764.2928466796876	-798.012390136719	-183.4880523681641	766.6254882812501	-803.6204833984377	-241.1314849853516	681.8823242187501	-802.705993652344	-235.9349822998047	574.1367797851564	-810.272399902344	-233.3579711914063	559.7477416992189	-922.8417968750002	-345.7880859375001	440.8090820312501	-830.6470947265627	-456.959930419922	468.8803710937501	-810.804138183594	-429.4192504882814	430.1502685546876	-812.4973754882815	-464.3081970214845	392.5227050781251	-842.8513793945315	-601.2235717773439	388.2580871582032	-827.1766357421877	-572.8909912109376	356.4532470703126	-900.043395996094	-646.1472778320314	422.8814392089845	-904.0433349609377	-601.9935913085939	214.5606079101563	-870.4973144531252	-609.0402832031251	218.465805053711	-823.9892578125002	-648.2810668945314	256.4267578125001	-791.310729980469	nan	nan	nan	nan	nan	nan	
449	2.24	-165.9715881347657	1754.247680664063	-1073.31640625	-324.3777465820313	1717.550903320313	-1136.532836914063	-320.3093872070313	1705.62255859375	-991.9920654296877	-389.6626281738282	1540.594848632813	-1060.5791015625	-392.0021057128907	1256.3388671875	-1035.39404296875	-248.2776641845704	1513.0625	-1075.649047851563	-322.6972656250001	1555.0498046875	-1219.67333984375	-208.6423492431641	1416.237426757813	-1365.163696289063	-169.6158447265625	1446.974609375	-1358.072021484375	-145.0054473876953	1403.282104492188	-1390.611328125	-86.07564544677736	1389.132202148438	-1406.156616210938	-84.61875915527345	1321.865112304688	-1365.676879882813	201.2913818359376	1367.079833984375	-1311.118041992188	205.5419464111329	1350.543334960938	-1380.956665039063	278.2028503417969	1395.687133789063	-1312.504516601563	-294.4064025878907	1553.76611328125	-925.8437500000002	-153.3750305175782	1484.14794921875	-791.7730102539065	-112.2957229614258	1490.30126953125	-819.083435058594	-89.97148895263673	1465.318969726563	-768.6457519531252	-18.26057624816895	1447.9873046875	-752.7711791992189	-24.81341171264649	1369.5703125	-774.2575683593752	248.995101928711	1410.4033203125	-853.207702636719	263.6974487304688	1409.723510742188	-782.3616333007815	330.4611816406251	1433.706420898438	-855.0153808593752	-218.0186614990235	1058.890014648438	-1135.975708007813	-230.0833892822266	1087.500610351563	-886.592712402344	-393.7149963378907	1121.267333984375	-1021.527954101563	-405.9307861328126	1089.641967773438	-1047.04345703125	-406.2064514160157	1093.704223632813	-990.435729980469	-257.9229431152344	737.1842651367189	-1165.91796875	-228.6874084472657	658.1029052734376	-1152.641723632813	-182.6617279052735	664.0567626953126	-1130.647338867188	-257.6541748046876	610.8691406250001	-1131.058837890625	-255.7113494873047	548.9855346679689	-1118.555419921875	-246.5086822509766	549.6943969726564	-999.209167480469	-243.8616485595704	362.9107360839844	-1032.223999023438	-292.6447143554688	321.9320068359376	-1093.275512695313	-255.7001647949219	314.4288635253907	-1063.771118164063	-280.8669433593751	240.9910278320313	-1029.125122070313	-381.9382019042969	119.6784133911133	-1038.893188476563	-339.9713745117188	136.2182922363282	-968.7724609375002	-432.483123779297	101.6570816040039	-981.9365844726565	-234.3860015869141	46.56249237060548	-976.6748657226565	-226.103500366211	44.55574798583985	-1026.797119140625	-271.6450805664063	33.65224075317384	-1073.264526367188	-256.2317810058594	817.8046875000002	-808.530212402344	-216.7908020019532	764.2047119140626	-798.135681152344	-183.7894592285157	766.4297485351564	-803.689880371094	-241.5165710449219	681.8093872070314	-802.8781738281252	-236.3997039794922	574.0120239257814	-810.316589355469	-233.9017181396485	559.6751098632814	-923.050231933594	-346.6224365234376	440.8234863281251	-830.480895996094	-457.7228088378907	469.1437988281251	-810.8607177734377	-430.2935180664064	430.5226440429689	-812.3585205078127	-466.0717163085939	392.1003723144532	-843.2634887695315	-602.0803833007814	388.7513122558595	-827.185485839844	-573.8737182617189	357.0037841796876	-900.017517089844	-646.6837768554689	423.6771240234376	-903.9641113281252	-603.6489257812501	215.2856597900391	-870.5269165039065	-610.5662231445314	218.8452911376954	-824.1870117187502	-649.8021240234376	256.7094421386719	-791.459655761719	nan	nan	nan	nan	nan	nan	
450	2.245	-166.7266387939453	1754.447875976563	-1073.751342773438	-324.3092956542969	1717.500732421875	-1136.614379882813	-320.2576599121094	1705.535278320313	-992.0920410156252	-389.658905029297	1540.5966796875	-1060.567016601563	-391.7671813964845	1256.312255859375	-1035.54443359375	-248.1570434570313	1513.055297851563	-1075.79638671875	-322.6907653808594	1555.09521484375	-1219.60546875	-207.4627227783204	1417.754516601563	-1364.9267578125	-168.2479858398438	1448.619140625	-1357.328857421875	-143.5454864501953	1404.828125	-1389.440063476563	-84.10452270507814	1390.986083984375	-1405.320434570313	-82.92745208740236	1323.883544921875	-1365.255737304688	202.8648223876954	1369.89111328125	-1309.936767578125	207.2705383300782	1353.895751953125	-1380.123901367188	279.6164550781251	1398.740356445313	-1311.248046875	-294.2559814453126	1553.826782226563	-926.2695312500002	-152.3845367431641	1485.444580078125	-792.511169433594	-111.7805862426758	1491.837646484375	-819.7644042968752	-89.05686950683595	1467.321533203125	-769.5275878906252	-16.96928024291993	1450.066284179688	-753.9114990234376	-23.15253257751465	1372.005493164063	-774.8890380859377	250.2020874023438	1413.705810546875	-853.9595336914065	264.6806640625001	1413.432006835938	-783.163757324219	331.6531066894532	1437.45751953125	-855.9804687500002	-217.6595001220704	1058.870727539063	-1135.921875	-230.1033630371094	1087.477172851563	-886.548522949219	-393.5974731445314	1121.348876953125	-1021.720520019531	-405.7332458496095	1089.615966796875	-1047.293579101563	-406.0494384765626	1093.626098632813	-990.6376953125002	-257.5070190429688	737.1540527343751	-1165.972778320313	-228.3778686523438	658.0810546875001	-1152.633666992188	-182.2373199462891	663.9920043945314	-1130.510375976563	-257.2867126464844	610.8254394531251	-1131.051635742188	-255.4586791992188	549.0103759765626	-1118.565185546875	-246.3917846679688	549.7089843750001	-999.2009887695315	-243.7714080810547	362.8980102539063	-1032.21923828125	-292.5360717773438	321.9705505371094	-1093.301391601563	-255.5369567871094	314.4029235839844	-1063.746826171875	-280.7730407714844	241.0328674316407	-1029.135498046875	-381.0978393554688	119.6580352783203	-1038.6162109375	-339.8963317871094	136.2806243896485	-968.7832031250002	-432.497528076172	101.6899719238282	-981.928161621094	-234.3853302001954	46.5577507019043	-976.6785278320315	-226.0952606201172	44.61910247802735	-1026.785766601563	-271.6318969726563	33.66705322265626	-1073.2421875	-256.4780578613282	817.6892700195315	-808.6453857421877	-217.0483398437501	764.0668945312501	-798.2037353515627	-184.1377410888672	766.1572265625001	-803.8242187500002	-241.8450469970704	681.6170654296876	-802.9324340820315	-236.908676147461	573.9285278320314	-810.3612060546877	-234.3310852050782	559.5264892578126	-923.1355590820315	-347.4034423828126	441.0066833496095	-830.525085449219	-458.4828186035157	469.1802062988282	-810.9637451171877	-431.0459899902345	430.7661437988282	-812.4104003906252	-465.9846191406251	392.9859619140626	-842.5986328125002	-602.8566894531251	389.2796020507814	-827.153259277344	-574.7409667968751	357.7430114746094	-899.9710693359377	-647.1928100585939	424.4991455078126	-903.9067993164065	-604.9624023437501	216.1479797363282	-870.9213867187502	-612.0635986328126	219.5793762207032	-824.0269165039065	-650.8950195312501	257.8170471191407	-791.3239746093752	nan	nan	nan	nan	nan	nan	
451	2.25	-166.638427734375	1754.486572265625	-1073.88671875	-324.2770385742188	1717.596923828125	-1136.698364257813	-320.2107543945313	1705.47021484375	-992.1863403320315	-389.6006164550782	1540.533325195313	-1060.65576171875	-391.6315002441407	1256.27001953125	-1035.659057617188	-248.0196380615235	1513.143432617188	-1075.929077148438	-322.6608276367188	1555.188598632813	-1219.483520507813	-206.2926788330079	1418.8857421875	-1364.596313476563	-167.0448150634766	1450.299438476563	-1356.905395507813	-142.256820678711	1406.82470703125	-1389.68115234375	-83.1335906982422	1393.243408203125	-1404.658203125	-81.12647247314455	1325.714721679688	-1364.722534179688	204.3948516845704	1372.435302734375	-1309.212280273438	208.9225158691407	1357.189086914063	-1379.389282226563	281.1728210449219	1401.642822265625	-1310.040283203125	-294.0841369628907	1553.906494140625	-926.574401855469	-151.556625366211	1486.501953125	-793.3244628906252	-111.1494140625	1493.26318359375	-820.5520629882815	-88.0345916748047	1469.096069335938	-770.6016235351565	-16.08223915100098	1452.231323242188	-754.9066772460939	-21.72614860534668	1374.271606445313	-775.7742309570315	251.5777130126954	1417.209594726563	-855.1345825195315	266.1303710937501	1416.908081054688	-784.354431152344	332.7032775878907	1441.260620117188	-857.2598266601565	-217.5403900146485	1058.518676757813	-1135.975341796875	-230.1070251464844	1087.438842773438	-886.4751586914065	-393.4488525390626	1121.326538085938	-1021.950134277344	-405.5736083984376	1089.587158203125	-1047.54248046875	-405.8392333984376	1093.596801757813	-990.8426513671877	-257.1745605468751	737.1586303710939	-1166.020874023438	-228.1455230712891	658.0640258789064	-1152.597778320313	-181.965087890625	663.9081420898439	-1130.427612304688	-257.0441894531251	610.8197021484376	-1131.124633789063	-255.2368469238282	548.9833984375001	-1118.574462890625	-246.1184387207032	549.7350463867189	-999.2130126953127	-243.6892700195313	362.9027404785157	-1032.1748046875	-292.4017944335938	321.9530639648438	-1093.32470703125	-255.3093872070313	314.2880859375001	-1063.651611328125	-280.7065124511719	241.0588836669922	-1029.159912109375	-381.1181030273438	119.6607208251953	-1038.666381835938	-339.9238586425782	136.3065185546875	-968.7603759765627	-432.4841918945314	101.6950454711914	-981.9407348632815	-234.3884429931641	46.59192657470704	-976.691833496094	-226.0913543701172	44.54753875732423	-1026.766479492188	-271.6510620117188	33.65982818603516	-1073.253173828125	-257.1069641113282	817.1951293945315	-808.9320068359377	-217.3362274169922	763.9506225585939	-798.3157348632815	-184.4175262451172	765.9612426757814	-804.0088500976565	-242.2127685546876	681.5128173828126	-803.0521240234377	-237.4299774169922	573.8029174804689	-810.438415527344	-234.8435058593751	559.3748779296876	-923.1196289062502	-347.9786376953126	441.1214599609376	-830.7005615234377	-459.1736450195314	469.651824951172	-811.0780029296877	-431.6625976562501	430.9965209960939	-812.542907714844	-466.9895935058595	393.1267089843751	-843.1276855468752	-603.4775390625001	389.7193298339845	-827.2244262695315	-575.6470947265626	358.2191467285157	-900.0916748046877	-648.0008544921876	425.1579589843751	-903.875427246094	-606.4793090820314	216.571273803711	-870.8816528320315	-613.5989990234376	220.1735229492188	-824.0195922851565	-652.2072143554689	258.6027526855469	-791.3251953125002	nan	nan	nan	nan	nan	nan	
